<svg width="72" height="29" viewBox="0 0 72 29" fill="none" xmlns="http://www.w3.org/2000/svg">
<g filter="url(#filter0_d)">
<path d="M2.568 19.192C1.832 19.192 1.464 18.992 1.464 18.592L1.512 15.64L1.56 12.688C1.56 11.616 1.536 9.992 1.488 7.816C1.44 5.656 1.416 4.032 1.416 2.944V2.8C1.416 2.384 1.456 2 1.536 1.648C1.632 1.216 1.888 0.999999 2.304 0.999999C3.424 0.999999 4.312 1.36 4.968 2.08C5.624 2.8 5.952 3.752 5.952 4.936C5.952 5.656 5.76 6.408 5.376 7.192C4.992 7.976 4.536 8.56 4.008 8.944C4.936 9.568 5.616 10.376 6.048 11.368C6.496 12.344 6.72 13.424 6.72 14.608C6.72 15.168 6.528 15.864 6.144 16.696C5.68 17.688 5.048 18.4 4.248 18.832C3.768 19.072 3.24 19.192 2.664 19.192H2.568ZM2.808 8.584C3.224 8.488 3.576 8.144 3.864 7.552C4.104 7.104 4.328 6.56 4.536 5.92C4.584 5.744 4.664 5.52 4.776 5.248V4.408C4.776 3.928 4.6 3.464 4.248 3.016C3.896 2.568 3.496 2.344 3.048 2.344C2.824 2.344 2.712 2.592 2.712 3.088C2.712 4.144 2.728 5.088 2.76 5.92L2.808 8.584ZM2.904 17.944C3.688 17.832 4.312 17.472 4.776 16.864C5.24 16.256 5.472 15.528 5.472 14.68C5.472 13.944 5.408 13.272 5.28 12.664C5.168 12.04 5.016 11.568 4.824 11.248C4.648 10.944 4.472 10.688 4.296 10.48C4.12 10.272 3.968 10.136 3.84 10.072L3.648 10H2.784C2.864 11.84 2.904 14.488 2.904 17.944ZM9.92288 19.24C9.68288 19.24 9.46688 19.136 9.27488 18.928C9.08288 18.72 8.99488 18.488 9.01088 18.232C9.05888 17.416 9.08288 16.584 9.08288 15.736C9.08288 15 9.06688 13.88 9.03488 12.376C9.01888 11.688 8.96288 10.656 8.86688 9.28C8.85088 9.008 8.82688 8.616 8.79488 8.104C8.76288 7.576 8.73888 7.112 8.72288 6.712C8.70688 6.44 8.69888 6.032 8.69888 5.488L8.72288 3.04C8.72288 2.896 8.70688 2.696 8.67488 2.44L8.65088 1.888C8.65088 1.632 8.71488 1.432 8.84288 1.288C8.98688 1.144 9.17088 1.072 9.39488 1.072C9.85888 1.072 10.1229 1.288 10.1869 1.72C10.2509 2.2 10.2829 2.56 10.2829 2.8C10.2829 3.088 10.2589 3.376 10.2109 3.664C10.1309 4.256 10.0909 4.792 10.0909 5.272L10.1149 5.992C10.1789 7.464 10.2109 8.816 10.2109 10.048V12.904C10.2109 13.4 10.2269 14.144 10.2589 15.136L10.4029 15.16L10.6909 14.224C11.1709 12.608 11.6269 11.136 12.0589 9.808C12.2829 9.184 12.5229 8.216 12.7789 6.904C12.8909 6.328 12.9949 5.864 13.0909 5.512L14.2909 1.192C14.4029 0.983999 14.5389 0.831999 14.6989 0.735999C14.8589 0.624 15.0189 0.576 15.1789 0.592C15.3709 0.639999 15.5549 0.775999 15.7309 0.999999C15.9069 1.208 15.9869 1.416 15.9709 1.624C15.9549 2.184 15.9069 2.768 15.8269 3.376C15.6829 5.376 15.6029 6.632 15.5869 7.144C15.5229 9.288 15.4909 10.896 15.4909 11.968C15.4909 12.48 15.5309 13.288 15.6109 14.392C15.6909 15.48 15.7389 16.2 15.7549 16.552L15.8509 17.752C15.8669 18.088 15.7869 18.352 15.6109 18.544C15.4349 18.736 15.2029 18.832 14.9149 18.832C14.7389 18.832 14.5869 18.776 14.4589 18.664C14.3309 18.536 14.2589 18.368 14.2429 18.16V17.944L14.2669 13.12V12.256C14.2349 11.424 14.2029 10.144 14.1709 8.416V7.432V5.848C14.1549 5.832 14.1149 5.824 14.0509 5.824C13.9549 5.84 13.8109 6.208 13.6189 6.928C13.4429 7.632 13.2749 8.344 13.1149 9.064C12.9549 9.768 12.8509 10.216 12.8029 10.408C12.6589 11.096 12.5709 11.488 12.5389 11.584C12.0909 13.104 11.7309 14.376 11.4589 15.4C11.1869 16.408 10.9629 17.432 10.7869 18.472C10.6909 18.984 10.4029 19.24 9.92288 19.24ZM22.3067 19.384C21.8587 19.384 21.4427 19.28 21.0587 19.072C20.6907 18.864 20.3707 18.584 20.0987 18.232C19.8587 17.896 19.6427 17.472 19.4507 16.96C19.2587 16.432 19.1147 15.888 19.0187 15.328C18.8267 14.384 18.6987 13.144 18.6347 11.608C18.6187 11.24 18.6107 10.608 18.6107 9.712V8.2C18.6267 7.768 18.6347 7.32 18.6347 6.856C18.6347 5.912 18.6907 5.168 18.8027 4.624C18.7547 4.384 18.7307 4.136 18.7307 3.88C18.7307 2.92 19.0907 2.144 19.8107 1.552C20.5307 0.959999 21.4427 0.663999 22.5467 0.663999C22.9627 0.663999 23.3467 0.775999 23.6987 0.999999C24.0507 1.224 24.2267 1.504 24.2267 1.84C24.2267 2 24.1627 2.128 24.0347 2.224C23.9067 2.32 23.7467 2.368 23.5547 2.368C23.3947 2.368 23.2187 2.344 23.0267 2.296C22.8507 2.248 22.7387 2.176 22.6907 2.08H22.3787V2.032C21.7867 2.032 21.2907 2.16 20.8907 2.416C20.6027 2.624 20.3787 2.968 20.2187 3.448C20.1547 3.624 20.1067 3.848 20.0747 4.12C20.0427 4.392 20.0267 4.64 20.0267 4.864C20.0107 4.992 20.0027 5.248 20.0027 5.632L20.0507 6.472L20.0747 7.288C20.0747 7.528 20.0427 7.808 19.9787 8.128C19.8987 8.528 19.8587 8.808 19.8587 8.968V9.544C19.8587 10.168 19.8827 11.024 19.9307 12.112C19.9467 13.024 20.0507 13.936 20.2427 14.848C20.3867 15.696 20.6587 16.416 21.0587 17.008C21.4427 17.616 21.9627 17.92 22.6187 17.92C22.8907 17.92 23.2267 17.776 23.6267 17.488C24.0587 17.2 24.3627 17.056 24.5387 17.056C24.7627 17.056 24.9947 17.176 25.2347 17.416C25.2347 18.008 25.0107 18.464 24.5627 18.784C24.1467 19.072 23.6507 19.256 23.0747 19.336C22.7547 19.368 22.4987 19.384 22.3067 19.384ZM28.4486 19.144C28.1446 19.144 27.8806 19.104 27.6566 19.024C27.3846 18.944 27.2486 18.72 27.2486 18.352V4.408C27.2486 4.136 27.2006 3.728 27.1046 3.184C26.9926 2.688 26.9366 2.28 26.9366 1.96V1.888C27.2086 1.44 27.4086 1.152 27.5366 1.024C27.7606 1.024 28.0566 0.992 28.4246 0.927999C28.7606 0.863999 29.0566 0.831999 29.3126 0.831999C29.5686 0.831999 29.8166 0.911999 30.0566 1.072C30.2966 1.216 30.4166 1.392 30.4166 1.6C30.4166 2.08 30.0486 2.32 29.3126 2.32H28.9766C28.8806 2.304 28.7686 2.296 28.6406 2.296C28.4966 2.296 28.4086 2.304 28.3766 2.32C28.3766 2.864 28.4086 3.52 28.4726 4.288L28.5206 4.96L28.5686 6.28C28.5686 6.584 28.5446 7.048 28.4966 7.672L28.4486 9.016L28.7846 8.944C29.1046 8.848 29.3686 8.8 29.5766 8.8C29.7526 8.8 29.9126 8.872 30.0566 9.016C30.2006 9.144 30.2726 9.296 30.2726 9.472C30.2726 9.664 30.2086 9.84 30.0806 10C29.9686 10.144 29.8246 10.216 29.6486 10.216L29.3606 10.192H29.0486C28.8086 10.192 28.6406 10.248 28.5446 10.36V17.776L29.8886 17.704C30.8006 17.704 31.2566 17.912 31.2566 18.328V18.424C31.1606 18.616 30.9846 18.776 30.7286 18.904C30.4726 19.016 30.2246 19.088 29.9846 19.12L29.1926 19.144H28.4486ZM34.0003 19.432C33.8723 19.464 33.7763 19.48 33.7123 19.48C33.5203 19.48 33.2643 19.384 32.9443 19.192C32.8483 19.128 32.8003 19.032 32.8003 18.904C32.8003 18.76 32.8723 18.664 33.0163 18.616C33.4003 18.488 33.6643 18.288 33.8083 18.016C33.9683 17.728 34.0803 17.432 34.1443 17.128C34.2243 16.824 34.2803 16.608 34.3123 16.48C34.6003 15.44 34.7443 14.104 34.7443 12.472C34.7443 12.264 34.7603 11.936 34.7923 11.488C34.8243 11.072 34.8403 10.752 34.8403 10.528C34.8403 9.92 34.8243 9.024 34.7923 7.84L34.7683 6.496C34.7363 4.832 34.7203 3.432 34.7203 2.296C34.7203 2.136 34.7283 1.912 34.7443 1.624C34.7763 1.336 34.8243 1.16 34.8883 1.096C34.9523 1.032 35.0403 0.991999 35.1523 0.975999C35.2643 0.959999 35.3363 0.951999 35.3683 0.951999C35.4323 0.935999 35.6083 0.895999 35.8963 0.831999C36.2003 0.751999 36.5043 0.711999 36.8083 0.711999C36.9683 0.711999 37.0883 0.719999 37.1683 0.735999C37.3123 0.799999 37.6483 0.855999 38.1763 0.904C38.7203 0.935999 39.0243 0.951999 39.0883 0.951999C39.1523 0.951999 39.1843 0.975999 39.1843 1.024C39.2163 1.104 39.2483 1.24 39.2803 1.432C39.2963 1.592 39.2723 2.08 39.2083 2.896L39.1603 3.76C39.1603 4.368 39.2003 5.112 39.2803 5.992C39.3603 7.016 39.4483 8.488 39.5443 10.408C39.5763 12.04 39.6083 13.256 39.6403 14.056L39.7843 17.176L39.8563 17.8C39.8883 18.088 39.9043 18.296 39.9043 18.424C39.9043 18.568 39.8723 18.696 39.8083 18.808C39.7443 18.92 39.6483 19 39.5203 19.048C39.4403 19.08 39.3203 19.096 39.1603 19.096C38.9523 19.096 38.7763 19.032 38.6323 18.904C38.4883 18.776 38.4163 18.568 38.4163 18.28C38.4323 17.384 38.4403 16.048 38.4403 14.272C38.4403 11.616 38.3203 9.072 38.0803 6.64C38.0323 6.128 37.9923 5.296 37.9603 4.144C37.9443 2.992 37.9363 2.208 37.9363 1.792L35.9683 1.816C35.9523 1.816 35.9523 1.976 35.9683 2.296C35.9843 2.616 35.9923 2.808 35.9923 2.872C35.9763 3.576 35.9683 4.744 35.9683 6.376V7.768C35.9843 8.248 35.9843 8.672 35.9683 9.04C35.9683 9.392 35.9683 9.688 35.9683 9.928C35.9523 10.424 35.9443 11.152 35.9443 12.112C35.9443 13.344 35.8723 14.576 35.7283 15.808C35.6483 16.432 35.5603 16.952 35.4643 17.368C35.3683 17.768 35.2163 18.152 35.0083 18.52C34.7683 18.952 34.4323 19.256 34.0003 19.432ZM43.8604 19.24C43.6204 19.24 43.4044 19.136 43.2124 18.928C43.0204 18.72 42.9324 18.488 42.9484 18.232C42.9964 17.416 43.0204 16.584 43.0204 15.736C43.0204 15 43.0044 13.88 42.9724 12.376C42.9564 11.688 42.9004 10.656 42.8044 9.28C42.7884 9.008 42.7644 8.616 42.7324 8.104C42.7004 7.576 42.6764 7.112 42.6604 6.712C42.6444 6.44 42.6364 6.032 42.6364 5.488L42.6604 3.04C42.6604 2.896 42.6444 2.696 42.6124 2.44L42.5884 1.888C42.5884 1.632 42.6524 1.432 42.7804 1.288C42.9244 1.144 43.1084 1.072 43.3324 1.072C43.7964 1.072 44.0604 1.288 44.1244 1.72C44.1884 2.2 44.2204 2.56 44.2204 2.8C44.2204 3.088 44.1964 3.376 44.1484 3.664C44.0684 4.256 44.0284 4.792 44.0284 5.272L44.0524 5.992C44.1164 7.464 44.1484 8.816 44.1484 10.048V12.904C44.1484 13.4 44.1644 14.144 44.1964 15.136L44.3404 15.16L44.6284 14.224C45.1084 12.608 45.5644 11.136 45.9964 9.808C46.2204 9.184 46.4604 8.216 46.7164 6.904C46.8284 6.328 46.9324 5.864 47.0284 5.512L48.2284 1.192C48.3404 0.983999 48.4764 0.831999 48.6364 0.735999C48.7964 0.624 48.9564 0.576 49.1164 0.592C49.3084 0.639999 49.4924 0.775999 49.6684 0.999999C49.8444 1.208 49.9244 1.416 49.9084 1.624C49.8924 2.184 49.8444 2.768 49.7644 3.376C49.6204 5.376 49.5404 6.632 49.5244 7.144C49.4604 9.288 49.4284 10.896 49.4284 11.968C49.4284 12.48 49.4684 13.288 49.5484 14.392C49.6284 15.48 49.6764 16.2 49.6924 16.552L49.7884 17.752C49.8044 18.088 49.7244 18.352 49.5484 18.544C49.3724 18.736 49.1404 18.832 48.8524 18.832C48.6764 18.832 48.5244 18.776 48.3964 18.664C48.2684 18.536 48.1964 18.368 48.1804 18.16V17.944L48.2044 13.12V12.256C48.1724 11.424 48.1404 10.144 48.1084 8.416V7.432V5.848C48.0924 5.832 48.0524 5.824 47.9884 5.824C47.8924 5.84 47.7484 6.208 47.5564 6.928C47.3804 7.632 47.2124 8.344 47.0524 9.064C46.8924 9.768 46.7884 10.216 46.7404 10.408C46.5964 11.096 46.5084 11.488 46.4764 11.584C46.0284 13.104 45.6684 14.376 45.3964 15.4C45.1244 16.408 44.9004 17.432 44.7244 18.472C44.6284 18.984 44.3404 19.24 43.8604 19.24ZM58.8362 22.696C58.6922 22.696 58.5642 22.656 58.4522 22.576C58.3402 22.496 58.2842 22.4 58.2842 22.288L58.3082 20.224C58.3242 19.84 58.3322 19.352 58.3322 18.76C57.8842 18.776 57.2362 18.816 56.3882 18.88C55.5402 18.928 54.8122 18.976 54.2042 19.024C53.8522 19.072 53.5962 18.968 53.4362 18.712C53.2922 18.44 53.2202 18.152 53.2202 17.848C53.0922 15.608 53.0042 13.928 52.9562 12.808C52.8282 9.64 52.7402 7.272 52.6922 5.704L52.6682 4.6V3.76C52.6682 3.168 52.6442 2.488 52.5962 1.72V1.504C52.5962 1.392 52.6122 1.304 52.6442 1.24C52.6762 1.16 52.7482 1.104 52.8602 1.072C52.9562 1.04 53.1162 1.064 53.3402 1.144C53.5642 1.208 53.7002 1.288 53.7482 1.384C53.9082 1.768 53.9882 2.224 53.9882 2.752C53.9882 3.392 53.9642 4.024 53.9162 4.648C53.9002 4.872 53.8842 5.144 53.8682 5.464C53.8522 5.768 53.8442 6.136 53.8442 6.568C53.8282 7.208 53.8202 8.008 53.8202 8.968C53.8202 10.056 53.8442 10.984 53.8922 11.752C53.9402 12.52 54.0442 13.824 54.2042 15.664C54.2362 16.112 54.2522 16.384 54.2522 16.48C54.2522 16.736 54.2682 16.984 54.3002 17.224C54.3322 17.464 54.3962 17.76 54.4922 18.112L56.4602 17.848V16.432C56.4602 15.616 56.4362 14.816 56.3882 14.032C56.3562 13.2 56.3402 12.592 56.3402 12.208L56.1962 6.448C56.1642 4.88 56.1482 3.6 56.1482 2.608L56.1242 1.96C56.1242 1.496 56.1802 1.16 56.2922 0.951999C56.3722 0.776 56.5162 0.688 56.7242 0.688C56.8522 0.688 56.9802 0.719999 57.1082 0.783998C57.3962 0.927999 57.5402 1.232 57.5402 1.696C57.5402 1.856 57.5242 2.048 57.4922 2.272C57.4762 2.48 57.4602 2.632 57.4442 2.728C57.4282 3.192 57.4122 3.872 57.3962 4.768C57.3802 5.648 57.3722 6.416 57.3722 7.072V9.376V10.552C57.3882 10.76 57.4202 11.544 57.4682 12.904C57.5162 14.248 57.5482 15.256 57.5642 15.928V15.688C57.5802 16.04 57.6202 16.72 57.6842 17.728C57.7962 17.728 57.9162 17.728 58.0442 17.728C58.1722 17.712 58.3402 17.704 58.5482 17.704C58.9002 17.72 59.1562 17.808 59.3162 17.968C59.4762 18.112 59.5562 18.352 59.5562 18.688C59.5562 19.088 59.5482 19.552 59.5322 20.08C59.5162 20.624 59.5002 21.04 59.4842 21.328L59.4362 22.216C59.4202 22.36 59.3642 22.472 59.2682 22.552C59.1722 22.648 59.0442 22.696 58.8842 22.696H58.8362ZM65.5826 19C65.3266 19 65.1346 18.952 65.0066 18.856C64.8946 18.76 64.8386 18.6 64.8386 18.376V15.232C64.6306 15.088 64.2386 14.96 63.6626 14.848C63.0866 14.736 62.5426 14.664 62.0306 14.632C61.8546 14.968 61.7266 15.376 61.6466 15.856L61.5506 16.336C61.5346 16.448 61.4866 16.696 61.4066 17.08C61.3266 17.464 61.2386 17.8 61.1426 18.088C61.0466 18.36 60.9506 18.576 60.8546 18.736C60.2466 18.736 59.8946 18.576 59.7986 18.256C59.9746 18 60.1746 17.248 60.3986 16L61.1906 11.608C61.5426 9.528 61.8626 7.752 62.1506 6.28C62.4546 4.808 62.7746 3.576 63.1106 2.584C63.4786 1.48 63.8306 0.927999 64.1666 0.927999C64.5026 0.927999 64.7586 0.991999 64.9346 1.12C64.9346 1.76 65.0866 3.304 65.3906 5.752C65.7106 8.152 65.8706 9.792 65.8706 10.672C65.8706 11.52 65.9586 12.736 66.1346 14.32C66.2946 15.936 66.3746 17.224 66.3746 18.184C66.3746 18.728 66.1106 19 65.5826 19ZM64.3346 13.84C64.4626 13.84 64.6226 13.816 64.8146 13.768C64.7666 13.064 64.6866 12.192 64.5746 11.152C64.2066 7.536 64.0226 5.32 64.0226 4.504V4.312C63.8626 4.472 63.6386 5.2 63.3506 6.496C63.0786 7.776 62.8226 9.152 62.5826 10.624C62.3426 12.096 62.2146 13.072 62.1986 13.552C62.8706 13.744 63.5826 13.84 64.3346 13.84Z" fill="#8460E7"/>
</g>
<defs>
<filter id="filter0_d" x="0.416016" y="0.588867" width="70.9586" height="28.107" filterUnits="userSpaceOnUse" color-interpolation-filters="sRGB">
<feFlood flood-opacity="0" result="BackgroundImageFix"/>
<feColorMatrix in="SourceAlpha" type="matrix" values="0 0 0 0 0 0 0 0 0 0 0 0 0 0 0 0 0 0 127 0" result="hardAlpha"/>
<feOffset dx="2" dy="3"/>
<feGaussianBlur stdDeviation="1.5"/>
<feComposite in2="hardAlpha" operator="out"/>
<feColorMatrix type="matrix" values="0 0 0 0 0 0 0 0 0 0 0 0 0 0 0 0 0 0 0.35 0"/>
<feBlend mode="normal" in2="BackgroundImageFix" result="effect1_dropShadow"/>
<feBlend mode="normal" in="SourceGraphic" in2="effect1_dropShadow" result="shape"/>
</filter>
</defs>
</svg>
